<?xml version="1.0" standalone="no"?>
<!DOCTYPE svg PUBLIC "-//W3C//DTD SVG 20010904//EN"
 "http://www.w3.org/TR/2001/REC-SVG-20010904/DTD/svg10.dtd">
<svg version="1.0" xmlns="http://www.w3.org/2000/svg"
 width="16px" height="16px" viewBox="0 0 60.000000 60.000000"
 preserveAspectRatio="xMidYMid meet">

<g transform="translate(0.000000,60.000000) scale(0.100000,-0.100000)"
fill="#000000" stroke="none">
<path d="M222 579 c-111 -55 -123 -217 -21 -290 44 -31 124 -37 173 -14 126
60 127 244 3 304 -55 27 -101 27 -155 0z m88 -7 c0 -5 -18 -14 -39 -21 -45
-13 -89 -60 -98 -102 -6 -33 -23 -39 -23 -9 0 45 50 109 100 129 31 12 60 14
60 3z m25 -102 c31 -62 31 -67 -5 -110 l-29 -35 -30 35 c-17 19 -30 41 -31 48
0 19 49 112 60 112 5 0 21 -22 35 -50z m112 -66 c-8 -47 -30 -80 -70 -104 -34
-21 -87 -27 -87 -10 0 6 11 10 24 10 42 0 90 41 106 93 18 55 35 63 27 11z"/>
<path d="M283 457 c-10 -22 -9 -24 17 -24 26 0 27 2 17 24 -5 13 -13 23 -17
23 -4 0 -12 -10 -17 -23z"/>
<path d="M270 403 c0 -3 7 -15 16 -25 16 -17 18 -17 30 0 20 26 17 32 -16 32
-16 0 -30 -3 -30 -7z"/>
<path d="M63 342 c-24 -15 -43 -29 -43 -32 0 -3 63 -43 140 -88 l140 -83 140
83 c77 45 140 85 140 89 0 7 -91 61 -95 57 -1 -2 -10 -17 -19 -35 -42 -83
-165 -119 -253 -74 -42 21 -78 58 -88 92 -8 24 -11 23 -62 -9z"/>
<path d="M30 250 c-8 -5 -12 -11 -10 -13 3 -3 67 -42 143 -86 l137 -82 140 82
c77 45 140 86 140 91 0 26 -41 12 -150 -51 -67 -39 -125 -71 -130 -71 -4 0
-58 29 -119 65 -129 77 -132 78 -151 65z"/>
<path d="M30 180 c-8 -5 -12 -11 -10 -13 3 -3 67 -42 143 -86 l137 -82 140 82
c77 45 140 86 140 91 0 26 -41 12 -150 -51 -67 -39 -125 -71 -130 -71 -4 0
-58 29 -119 65 -129 77 -132 78 -151 65z"/>
</g>
</svg>
